Coordinates
version=1
nRows=7
nColumns=40
inDegrees=yes

Units are S.I. units (second, meters, Newtons, ...)
Angles are in degrees.

endheader
time	pelvis_tilt	pelvis_list	pelvis_rotation	pelvis_tx	pelvis_ty	pelvis_tz	hip_flexion_r	hip_adduction_r	hip_rotation_r	knee_angle_r	knee_angle_r_beta	ankle_angle_r	subtalar_angle_r	mtp_angle_r	hip_flexion_l	hip_adduction_l	hip_rotation_l	knee_angle_l	knee_angle_l_beta	ankle_angle_l	subtalar_angle_l	mtp_angle_l	lumbar_extension	lumbar_bending	lumbar_rotation	arm_flex_r	arm_add_r	arm_rot_r	elbow_flex_r	pro_sup_r	wrist_flex_r	wrist_dev_r	arm_flex_l	arm_add_l	arm_rot_l	elbow_flex_l	pro_sup_l	wrist_flex_l	wrist_dev_l
     28.38000000	     -4.68694356	     -4.72870603	      1.23464748	      0.72641726	      0.92640445	      0.47508210	      1.59779400	     -0.61625051	    -14.88915474	     19.18606436	     19.18606436	     17.83386272	     11.02411641	     -1.86539060	     24.18889281	     -7.02984907	     -2.23265164	     26.71194875	     26.71194875	     10.16442947	    -13.68621344	      7.55136532	     -9.30582965	      9.44801524	      3.65605111	     26.10494767	    -17.95278989	     -5.98374683	     88.03715431	     44.87093463	      0.00000000	      0.00000000	     -8.83116371	     -9.72568574	     -0.96011793	     40.68979434	     45.45991281	      0.00000000	      0.00000000
     28.39371429	     -4.74367894	     -4.69351306	      1.30576785	      0.72504372	      0.92691992	      0.47166509	      1.81836202	     -1.06619713	    -14.90910471	     20.15938512	     20.15938512	     17.47521890	     10.87673315	     -2.78396532	     23.76661193	     -6.73122287	     -2.21521469	     26.58865842	     26.58865842	     10.70333377	    -13.58423379	      8.01583609	     -9.26356965	      9.37385971	      3.24908219	     25.43796993	    -17.59290522	     -7.06360329	     85.80527441	     44.99438717	      0.00000000	      0.00000000	     -9.38854821	    -10.49628164	      0.36312136	     43.95170387	     45.36445427	      0.00000000	      0.00000000
     28.40742857	     -4.80475282	     -4.61101713	      1.34156816	      0.72362819	      0.92754514	      0.46824876	      2.26844720	     -1.62250918	    -14.76639096	     21.54711797	     21.54711797	     17.24710834	     10.54790798	     -3.28289440	     23.25024063	     -6.40683956	     -2.33265927	     26.28726988	     26.28726988	     10.99062788	    -13.42522825	      7.95739314	     -9.22775108	      9.27883105	      3.29921197	     24.12389603	    -18.12432245	     -7.22810300	     84.50362120	     45.04019666	      0.00000000	      0.00000000	     -8.76911497	    -10.72567043	      0.30645770	     44.78258287	     45.39071650	      0.00000000	      0.00000000
     28.42114286	     -4.89663927	     -4.57128264	      1.39234908	      0.72209477	      0.92813778	      0.46485166	      2.94968535	     -2.18135937	    -14.55440586	     23.25678718	     23.25678718	     16.84087198	     10.12207272	     -4.17251047	     22.75487263	     -6.10552905	     -2.36380030	     25.93064441	     25.93064441	     11.22696370	    -13.35009465	      7.88713555	     -9.16989998	      9.21584596	      3.32667215	     22.81387750	    -18.46821176	     -7.79521651	     82.82856092	     45.11159111	      0.00000000	      0.00000000	     -8.25021294	    -10.99761324	      0.22764495	     46.12608351	     45.42459406	      0.00000000	      0.00000000
     28.43485714	     -4.90531979	     -4.55111294	      1.49053432	      0.72058508	      0.92884385	      0.46151877	      3.61223247	     -2.69796610	    -14.25581991	     24.99270092	     24.99270092	     15.60148160	      9.28460865	     -7.14696724	     22.14874217	     -5.80759485	     -2.31738000	     25.51340850	     25.51340850	     11.36139813	    -13.38866254	      7.64125216	     -9.16992145	      9.14423850	      2.99603883	     21.84539800	    -17.90310553	     -9.41929269	     80.23815633	     45.25315305	      0.00000000	      0.00000000	     -8.48997068	    -11.60910016	      0.34573838	     49.24852935	     45.47720449	      0.00000000	      0.00000000
     28.44857143	     -4.92270374	     -4.51671461	      1.57364913	      0.71895289	      0.92952072	      0.45826611	      4.52448610	     -3.26280933	    -13.81133406	     27.08369593	     27.08369593	     13.99591575	      8.14754184	    -10.79170527	     21.53448207	     -5.52408708	     -2.35322024	     25.05207354	     25.05207354	     11.48876275	    -13.27354876	      7.29501179	     -9.18526513	      9.07385862	      2.74195244	     20.62146510	    -17.79098632	    -10.22955848	     78.11248466	     45.34892339	      0.00000000	      0.00000000	     -8.24059987	    -12.06433066	      0.22369716	     51.39646531	     45.56578029	      0.00000000	      0.00000000
     28.46228571	     -4.94916431	     -4.44451361	      1.62214806	      0.71724858	      0.93014617	      0.45506178	      5.82038830	     -3.98598300	    -13.32560605	     29.92379016	     29.92379016	     13.09775687	      7.35162790	    -11.93154501	     20.93313370	     -5.22970550	     -2.49734947	     24.60841293	     24.60841293	     11.75162357	    -13.01524089	      7.17657378	     -9.22956433	      8.98376635	      2.66640185	     19.00778426	    -18.01920437	    -10.48449630	     76.70638498	     45.39744257	      0.00000000	      0.00000000	     -7.44804848	    -12.37411082	     -0.04956028	     52.36423167	     45.61653264	      0.00000000	      0.00000000
